<svg fill="#FFFFFF" xmlns:dc="http://purl.org/dc/elements/1.1/" xmlns:cc="http://creativecommons.org/ns#" xmlns:rdf="http://www.w3.org/1999/02/22-rdf-syntax-ns#" xmlns:svg="http://www.w3.org/2000/svg" xmlns="http://www.w3.org/2000/svg" xmlns:sodipodi="http://sodipodi.sourceforge.net/DTD/sodipodi-0.dtd" xmlns:inkscape="http://www.inkscape.org/namespaces/inkscape" version="1.1" x="0px" y="0px" viewBox="0 0 100 100"><g transform="translate(0,-952.36218)"><path style="color:#000000;enable-background:accumulate;" d="m 11,975.36216 c -0.3226,0 -0.6374,0.053 -0.9375,0.125 l 38.0313,33.25004 c 0.886,0.7744 2.9264,0.7744 3.8124,0 l 38.0313,-33.25004 c -0.3001,-0.072 -0.6149,-0.125 -0.9375,-0.125 l -78,0 z m -3.8438,2.9375 C 7.0642,978.63786 7,978.99386 7,979.36216 l 0,46.00004 c 0,0.3683 0.064,0.7243 0.1562,1.0625 L 34.5625,1002.206 7.1562,978.29966 z m 85.6876,0 -27.4063,23.90634 27.4063,24.2187 c 0.092,-0.3382 0.1562,-0.6942 0.1562,-1.0625 l 0,-46.00004 c 0,-0.3683 -0.064,-0.7243 -0.1562,-1.0625 z m -55.25,26.56254 -27.5626,24.375 c 0.3092,0.076 0.6355,0.125 0.9688,0.125 l 78,0 c 0.3333,0 0.6596,-0.049 0.9688,-0.125 l -27.5626,-24.375 -7.875,6.875 c -2.5912,2.2645 -6.4712,2.2645 -9.0624,0 l -7.875,-6.875 z" fill="#FFFFFF" stroke="none" marker="none" visibility="visible" display="inline" overflow="visible"></path></g></svg>